<mxfile host="Electron" agent="Mozilla/5.0 (Windows NT 10.0; Win64; x64) AppleWebKit/537.36 (KHTML, like Gecko) draw.io/24.7.17 Chrome/128.0.6613.36 Electron/32.0.1 Safari/537.36" version="24.7.17" pages="3">
  <diagram id="yBpXtKVPLzFsCM-Ow7Oz" name="Logic Mapping">
    <mxGraphModel dx="1327" dy="911" grid="0" gridSize="10" guides="1" tooltips="1" connect="1" arrows="1" fold="1" page="1" pageScale="1" pageWidth="1100" pageHeight="850" math="0" shadow="0">
      <root>
        <mxCell id="0" />
        <mxCell id="1" parent="0" />
        <mxCell id="F8XCtD0g3NKq9j4j3F5Y-27" value="Partner / Business Logic Translation" style="shape=table;startSize=30;container=1;collapsible=0;childLayout=tableLayout;strokeColor=default;fontSize=16;" parent="1" vertex="1">
          <mxGeometry x="30" y="130" width="1030" height="350" as="geometry" />
        </mxCell>
        <mxCell id="F8XCtD0g3NKq9j4j3F5Y-46" style="shape=tableRow;horizontal=0;startSize=0;swimlaneHead=0;swimlaneBody=0;strokeColor=inherit;top=0;left=0;bottom=0;right=0;collapsible=0;dropTarget=0;fillColor=none;points=[[0,0.5],[1,0.5]];portConstraint=eastwest;fontSize=16;" parent="F8XCtD0g3NKq9j4j3F5Y-27" vertex="1">
          <mxGeometry y="30" width="1030" height="64" as="geometry" />
        </mxCell>
        <mxCell id="F8XCtD0g3NKq9j4j3F5Y-47" value="Tenent" style="shape=partialRectangle;html=1;whiteSpace=wrap;connectable=0;strokeColor=inherit;overflow=hidden;fillColor=none;top=0;left=0;bottom=0;right=0;pointerEvents=1;fontSize=16;" parent="F8XCtD0g3NKq9j4j3F5Y-46" vertex="1">
          <mxGeometry width="130" height="64" as="geometry">
            <mxRectangle width="130" height="64" as="alternateBounds" />
          </mxGeometry>
        </mxCell>
        <mxCell id="F8XCtD0g3NKq9j4j3F5Y-48" value="&quot;Daily Import&quot;" style="shape=partialRectangle;html=1;whiteSpace=wrap;connectable=0;strokeColor=inherit;overflow=hidden;fillColor=none;top=0;left=0;bottom=0;right=0;pointerEvents=1;fontSize=16;" parent="F8XCtD0g3NKq9j4j3F5Y-46" vertex="1">
          <mxGeometry x="130" width="300" height="64" as="geometry">
            <mxRectangle width="300" height="64" as="alternateBounds" />
          </mxGeometry>
        </mxCell>
        <mxCell id="F8XCtD0g3NKq9j4j3F5Y-49" value="&quot;Notification Function&quot;" style="shape=partialRectangle;html=1;whiteSpace=wrap;connectable=0;strokeColor=inherit;overflow=hidden;fillColor=none;top=0;left=0;bottom=0;right=0;pointerEvents=1;fontSize=16;" parent="F8XCtD0g3NKq9j4j3F5Y-46" vertex="1">
          <mxGeometry x="430" width="300" height="64" as="geometry">
            <mxRectangle width="300" height="64" as="alternateBounds" />
          </mxGeometry>
        </mxCell>
        <mxCell id="F8XCtD0g3NKq9j4j3F5Y-50" value="&quot;Daily Report&quot;" style="shape=partialRectangle;html=1;whiteSpace=wrap;connectable=0;strokeColor=inherit;overflow=hidden;fillColor=none;top=0;left=0;bottom=0;right=0;pointerEvents=1;fontSize=16;" parent="F8XCtD0g3NKq9j4j3F5Y-46" vertex="1">
          <mxGeometry x="730" width="300" height="64" as="geometry">
            <mxRectangle width="300" height="64" as="alternateBounds" />
          </mxGeometry>
        </mxCell>
        <mxCell id="F8XCtD0g3NKq9j4j3F5Y-28" value="" style="shape=tableRow;horizontal=0;startSize=0;swimlaneHead=0;swimlaneBody=0;strokeColor=inherit;top=0;left=0;bottom=0;right=0;collapsible=0;dropTarget=0;fillColor=none;points=[[0,0.5],[1,0.5]];portConstraint=eastwest;fontSize=16;" parent="F8XCtD0g3NKq9j4j3F5Y-27" vertex="1">
          <mxGeometry y="94" width="1030" height="64" as="geometry" />
        </mxCell>
        <mxCell id="F8XCtD0g3NKq9j4j3F5Y-43" value="Greg" style="shape=partialRectangle;html=1;whiteSpace=wrap;connectable=0;strokeColor=inherit;overflow=hidden;fillColor=none;top=0;left=0;bottom=0;right=0;pointerEvents=1;fontSize=16;" parent="F8XCtD0g3NKq9j4j3F5Y-28" vertex="1">
          <mxGeometry width="130" height="64" as="geometry">
            <mxRectangle width="130" height="64" as="alternateBounds" />
          </mxGeometry>
        </mxCell>
        <mxCell id="F8XCtD0g3NKq9j4j3F5Y-40" value="&lt;pre style=&quot;box-sizing: border-box; font-family: ui-monospace, SFMono-Regular, &amp;quot;SF Mono&amp;quot;, Menlo, Consolas, &amp;quot;Liberation Mono&amp;quot;, monospace; font-size: 12px; outline: none; overflow-wrap: normal; overflow: auto; line-height: 1.45; color: rgb(31, 35, 40); margin-top: 0px !important; margin-bottom: 0px !important; padding: 16px 24px !important; background: none !important; border-radius: 0px !important;&quot; tabindex=&quot;0&quot; class=&quot;CodeBlock-module__code--KUcqT&quot;&gt;&lt;code style=&quot;box-sizing: border-box; font-family: ui-monospace, SFMono-Regular, &amp;quot;SF Mono&amp;quot;, Menlo, Consolas, &amp;quot;Liberation Mono&amp;quot;, monospace; font-size: 12px; padding: 0px; margin: 0px; background: transparent; border-radius: 6px; word-break: normal; border: 0px; display: inline; overflow: visible; line-height: inherit; overflow-wrap: normal;&quot; class=&quot;&quot;&gt;&lt;span style=&quot;box-sizing: border-box; font-size: 12px;&quot;&gt;arn:aws:lambda:us-east-2:123456789012:&lt;br style=&quot;font-size: 12px;&quot;&gt;function:standard-daily-import&lt;/span&gt;&lt;/code&gt;&lt;/pre&gt;" style="shape=partialRectangle;html=1;whiteSpace=wrap;connectable=0;strokeColor=inherit;overflow=hidden;fillColor=none;top=0;left=0;bottom=0;right=0;pointerEvents=1;fontSize=12;align=left;spacing=0;verticalAlign=middle;labelPosition=center;verticalLabelPosition=middle;" parent="F8XCtD0g3NKq9j4j3F5Y-28" vertex="1">
          <mxGeometry x="130" width="300" height="64" as="geometry">
            <mxRectangle width="300" height="64" as="alternateBounds" />
          </mxGeometry>
        </mxCell>
        <mxCell id="F8XCtD0g3NKq9j4j3F5Y-29" value="&lt;pre style=&quot;font-size: 12px; text-align: left; box-sizing: border-box; font-family: ui-monospace, SFMono-Regular, &amp;quot;SF Mono&amp;quot;, Menlo, Consolas, &amp;quot;Liberation Mono&amp;quot;, monospace; outline: none; overflow-wrap: normal; overflow: auto; line-height: 1.45; color: rgb(31, 35, 40); background: none !important; margin-top: 0px !important; margin-bottom: 0px !important; padding: 16px 24px !important; border-radius: 0px !important;&quot; tabindex=&quot;0&quot; class=&quot;CodeBlock-module__code--KUcqT&quot;&gt;&lt;code style=&quot;box-sizing: border-box; font-family: ui-monospace, SFMono-Regular, &amp;quot;SF Mono&amp;quot;, Menlo, Consolas, &amp;quot;Liberation Mono&amp;quot;, monospace; padding: 0px; margin: 0px; background: transparent; border-radius: 6px; word-break: normal; border: 0px; display: inline; overflow: visible; line-height: inherit; overflow-wrap: normal;&quot; class=&quot;&quot;&gt;&lt;span style=&quot;box-sizing: border-box;&quot;&gt;arn:aws:lambda:us-east-2:123456789012:&lt;br&gt;function:standard-notification&lt;/span&gt;&lt;/code&gt;&lt;/pre&gt;" style="shape=partialRectangle;html=1;whiteSpace=wrap;connectable=0;strokeColor=inherit;overflow=hidden;fillColor=none;top=0;left=0;bottom=0;right=0;pointerEvents=1;fontSize=16;" parent="F8XCtD0g3NKq9j4j3F5Y-28" vertex="1">
          <mxGeometry x="430" width="300" height="64" as="geometry">
            <mxRectangle width="300" height="64" as="alternateBounds" />
          </mxGeometry>
        </mxCell>
        <mxCell id="F8XCtD0g3NKq9j4j3F5Y-30" value="&lt;pre style=&quot;font-size: 12px; text-align: left; box-sizing: border-box; font-family: ui-monospace, SFMono-Regular, &amp;quot;SF Mono&amp;quot;, Menlo, Consolas, &amp;quot;Liberation Mono&amp;quot;, monospace; outline: none; overflow-wrap: normal; overflow: auto; line-height: 1.45; color: rgb(31, 35, 40); background: none !important; margin-top: 0px !important; margin-bottom: 0px !important; padding: 16px 24px !important; border-radius: 0px !important;&quot; tabindex=&quot;0&quot; class=&quot;CodeBlock-module__code--KUcqT&quot;&gt;&lt;code style=&quot;box-sizing: border-box; font-family: ui-monospace, SFMono-Regular, &amp;quot;SF Mono&amp;quot;, Menlo, Consolas, &amp;quot;Liberation Mono&amp;quot;, monospace; padding: 0px; margin: 0px; background: transparent; border-radius: 6px; word-break: normal; border: 0px; display: inline; overflow: visible; line-height: inherit; overflow-wrap: normal;&quot; class=&quot;&quot;&gt;&lt;span style=&quot;box-sizing: border-box;&quot;&gt;arn:aws:lambda:us-east-2:123456789012:&lt;br&gt;function:standard-report&lt;/span&gt;&lt;/code&gt;&lt;/pre&gt;" style="shape=partialRectangle;html=1;whiteSpace=wrap;connectable=0;strokeColor=inherit;overflow=hidden;fillColor=none;top=0;left=0;bottom=0;right=0;pointerEvents=1;fontSize=16;" parent="F8XCtD0g3NKq9j4j3F5Y-28" vertex="1">
          <mxGeometry x="730" width="300" height="64" as="geometry">
            <mxRectangle width="300" height="64" as="alternateBounds" />
          </mxGeometry>
        </mxCell>
        <mxCell id="F8XCtD0g3NKq9j4j3F5Y-32" value="" style="shape=tableRow;horizontal=0;startSize=0;swimlaneHead=0;swimlaneBody=0;strokeColor=inherit;top=0;left=0;bottom=0;right=0;collapsible=0;dropTarget=0;fillColor=none;points=[[0,0.5],[1,0.5]];portConstraint=eastwest;fontSize=16;" parent="F8XCtD0g3NKq9j4j3F5Y-27" vertex="1">
          <mxGeometry y="158" width="1030" height="64" as="geometry" />
        </mxCell>
        <mxCell id="F8XCtD0g3NKq9j4j3F5Y-44" value="Peter" style="shape=partialRectangle;html=1;whiteSpace=wrap;connectable=0;strokeColor=inherit;overflow=hidden;fillColor=none;top=0;left=0;bottom=0;right=0;pointerEvents=1;fontSize=16;" parent="F8XCtD0g3NKq9j4j3F5Y-32" vertex="1">
          <mxGeometry width="130" height="64" as="geometry">
            <mxRectangle width="130" height="64" as="alternateBounds" />
          </mxGeometry>
        </mxCell>
        <mxCell id="F8XCtD0g3NKq9j4j3F5Y-41" value="&lt;pre style=&quot;font-size: 12px; text-align: left; box-sizing: border-box; font-family: ui-monospace, SFMono-Regular, &amp;quot;SF Mono&amp;quot;, Menlo, Consolas, &amp;quot;Liberation Mono&amp;quot;, monospace; outline: none; overflow-wrap: normal; overflow: auto; line-height: 1.45; color: rgb(31, 35, 40); background: none !important; margin-top: 0px !important; margin-bottom: 0px !important; padding: 16px 24px !important; border-radius: 0px !important;&quot; tabindex=&quot;0&quot; class=&quot;CodeBlock-module__code--KUcqT&quot;&gt;&lt;code style=&quot;box-sizing: border-box; font-family: ui-monospace, SFMono-Regular, &amp;quot;SF Mono&amp;quot;, Menlo, Consolas, &amp;quot;Liberation Mono&amp;quot;, monospace; padding: 0px; margin: 0px; background: transparent; border-radius: 6px; word-break: normal; border: 0px; display: inline; overflow: visible; line-height: inherit; overflow-wrap: normal;&quot; class=&quot;&quot;&gt;&lt;span style=&quot;box-sizing: border-box;&quot;&gt;arn:aws:lambda:us-east-2:123456789012:&lt;br&gt;function:standard-daily-import&lt;/span&gt;&lt;/code&gt;&lt;/pre&gt;" style="shape=partialRectangle;html=1;whiteSpace=wrap;connectable=0;strokeColor=inherit;overflow=hidden;fillColor=none;top=0;left=0;bottom=0;right=0;pointerEvents=1;fontSize=16;" parent="F8XCtD0g3NKq9j4j3F5Y-32" vertex="1">
          <mxGeometry x="130" width="300" height="64" as="geometry">
            <mxRectangle width="300" height="64" as="alternateBounds" />
          </mxGeometry>
        </mxCell>
        <mxCell id="F8XCtD0g3NKq9j4j3F5Y-33" value="&lt;pre style=&quot;font-size: 12px; text-align: left; box-sizing: border-box; font-family: ui-monospace, SFMono-Regular, &amp;quot;SF Mono&amp;quot;, Menlo, Consolas, &amp;quot;Liberation Mono&amp;quot;, monospace; outline: none; overflow-wrap: normal; overflow: auto; line-height: 1.45; color: rgb(31, 35, 40); background-image: none !important; background-position: initial !important; background-size: initial !important; background-repeat: initial !important; background-attachment: initial !important; background-origin: initial !important; background-clip: initial !important; margin-top: 0px !important; margin-bottom: 0px !important; padding: 16px 24px !important; border-radius: 0px !important;&quot; tabindex=&quot;0&quot; class=&quot;CodeBlock-module__code--KUcqT&quot;&gt;&lt;code style=&quot;background-image: initial; background-position: initial; background-size: initial; background-repeat: initial; background-attachment: initial; background-origin: initial; background-clip: initial; box-sizing: border-box; font-family: ui-monospace, SFMono-Regular, &amp;quot;SF Mono&amp;quot;, Menlo, Consolas, &amp;quot;Liberation Mono&amp;quot;, monospace; padding: 0px; margin: 0px; border-radius: 6px; word-break: normal; border: 0px; display: inline; overflow: visible; line-height: inherit; overflow-wrap: normal;&quot; class=&quot;&quot;&gt;&lt;span style=&quot;box-sizing: border-box;&quot;&gt;arn:aws:lambda:us-east-2:123456789012:&lt;br&gt;function:&lt;span style=&quot;background-color: rgb(255, 230, 204);&quot;&gt;peter-admins&lt;/span&gt;&lt;/span&gt;&lt;/code&gt;&lt;/pre&gt;" style="shape=partialRectangle;html=1;whiteSpace=wrap;connectable=0;strokeColor=inherit;overflow=hidden;fillColor=none;top=0;left=0;bottom=0;right=0;pointerEvents=1;fontSize=16;" parent="F8XCtD0g3NKq9j4j3F5Y-32" vertex="1">
          <mxGeometry x="430" width="300" height="64" as="geometry">
            <mxRectangle width="300" height="64" as="alternateBounds" />
          </mxGeometry>
        </mxCell>
        <mxCell id="F8XCtD0g3NKq9j4j3F5Y-34" value="&lt;pre style=&quot;font-size: 12px; text-align: left; box-sizing: border-box; font-family: ui-monospace, SFMono-Regular, &amp;quot;SF Mono&amp;quot;, Menlo, Consolas, &amp;quot;Liberation Mono&amp;quot;, monospace; outline: none; overflow-wrap: normal; overflow: auto; line-height: 1.45; color: rgb(31, 35, 40); background: none !important; margin-top: 0px !important; margin-bottom: 0px !important; padding: 16px 24px !important; border-radius: 0px !important;&quot; tabindex=&quot;0&quot; class=&quot;CodeBlock-module__code--KUcqT&quot;&gt;&lt;code style=&quot;box-sizing: border-box; font-family: ui-monospace, SFMono-Regular, &amp;quot;SF Mono&amp;quot;, Menlo, Consolas, &amp;quot;Liberation Mono&amp;quot;, monospace; padding: 0px; margin: 0px; background: transparent; border-radius: 6px; word-break: normal; border: 0px; display: inline; overflow: visible; line-height: inherit; overflow-wrap: normal;&quot; class=&quot;&quot;&gt;&lt;span style=&quot;box-sizing: border-box;&quot;&gt;arn:aws:lambda:us-east-2:123456789012:&lt;br&gt;function:standard-report&lt;/span&gt;&lt;/code&gt;&lt;/pre&gt;" style="shape=partialRectangle;html=1;whiteSpace=wrap;connectable=0;strokeColor=inherit;overflow=hidden;fillColor=none;top=0;left=0;bottom=0;right=0;pointerEvents=1;fontSize=16;" parent="F8XCtD0g3NKq9j4j3F5Y-32" vertex="1">
          <mxGeometry x="730" width="300" height="64" as="geometry">
            <mxRectangle width="300" height="64" as="alternateBounds" />
          </mxGeometry>
        </mxCell>
        <mxCell id="F8XCtD0g3NKq9j4j3F5Y-51" style="shape=tableRow;horizontal=0;startSize=0;swimlaneHead=0;swimlaneBody=0;strokeColor=inherit;top=0;left=0;bottom=0;right=0;collapsible=0;dropTarget=0;fillColor=none;points=[[0,0.5],[1,0.5]];portConstraint=eastwest;fontSize=16;" parent="F8XCtD0g3NKq9j4j3F5Y-27" vertex="1">
          <mxGeometry y="222" width="1030" height="64" as="geometry" />
        </mxCell>
        <mxCell id="F8XCtD0g3NKq9j4j3F5Y-52" value="Marsha" style="shape=partialRectangle;html=1;whiteSpace=wrap;connectable=0;strokeColor=inherit;overflow=hidden;fillColor=none;top=0;left=0;bottom=0;right=0;pointerEvents=1;fontSize=16;" parent="F8XCtD0g3NKq9j4j3F5Y-51" vertex="1">
          <mxGeometry width="130" height="64" as="geometry">
            <mxRectangle width="130" height="64" as="alternateBounds" />
          </mxGeometry>
        </mxCell>
        <mxCell id="F8XCtD0g3NKq9j4j3F5Y-53" value="&lt;pre style=&quot;font-size: 12px; text-align: left; box-sizing: border-box; font-family: ui-monospace, SFMono-Regular, &amp;quot;SF Mono&amp;quot;, Menlo, Consolas, &amp;quot;Liberation Mono&amp;quot;, monospace; outline: none; overflow-wrap: normal; overflow: auto; line-height: 1.45; color: rgb(31, 35, 40); background: none !important; margin-top: 0px !important; margin-bottom: 0px !important; padding: 16px 24px !important; border-radius: 0px !important;&quot; tabindex=&quot;0&quot; class=&quot;CodeBlock-module__code--KUcqT&quot;&gt;&lt;code style=&quot;box-sizing: border-box; font-family: ui-monospace, SFMono-Regular, &amp;quot;SF Mono&amp;quot;, Menlo, Consolas, &amp;quot;Liberation Mono&amp;quot;, monospace; padding: 0px; margin: 0px; background: transparent; border-radius: 6px; word-break: normal; border: 0px; display: inline; overflow: visible; line-height: inherit; overflow-wrap: normal;&quot; class=&quot;&quot;&gt;&lt;span style=&quot;box-sizing: border-box;&quot;&gt;arn:aws:lambda:us-east-2:123456789012:&lt;br&gt;function:standard-daily-import&lt;/span&gt;&lt;/code&gt;&lt;/pre&gt;" style="shape=partialRectangle;html=1;whiteSpace=wrap;connectable=0;strokeColor=inherit;overflow=hidden;fillColor=none;top=0;left=0;bottom=0;right=0;pointerEvents=1;fontSize=16;" parent="F8XCtD0g3NKq9j4j3F5Y-51" vertex="1">
          <mxGeometry x="130" width="300" height="64" as="geometry">
            <mxRectangle width="300" height="64" as="alternateBounds" />
          </mxGeometry>
        </mxCell>
        <mxCell id="F8XCtD0g3NKq9j4j3F5Y-54" value="&lt;pre style=&quot;font-size: 12px; text-align: left; box-sizing: border-box; font-family: ui-monospace, SFMono-Regular, &amp;quot;SF Mono&amp;quot;, Menlo, Consolas, &amp;quot;Liberation Mono&amp;quot;, monospace; outline: none; overflow-wrap: normal; overflow: auto; line-height: 1.45; color: rgb(31, 35, 40); background: none !important; margin-top: 0px !important; margin-bottom: 0px !important; padding: 16px 24px !important; border-radius: 0px !important;&quot; tabindex=&quot;0&quot; class=&quot;CodeBlock-module__code--KUcqT&quot;&gt;&lt;code style=&quot;box-sizing: border-box; font-family: ui-monospace, SFMono-Regular, &amp;quot;SF Mono&amp;quot;, Menlo, Consolas, &amp;quot;Liberation Mono&amp;quot;, monospace; padding: 0px; margin: 0px; background: transparent; border-radius: 6px; word-break: normal; border: 0px; display: inline; overflow: visible; line-height: inherit; overflow-wrap: normal;&quot; class=&quot;&quot;&gt;&lt;span style=&quot;box-sizing: border-box;&quot;&gt;arn:aws:lambda:us-east-2:123456789012:&lt;br&gt;function:standard-notification&lt;/span&gt;&lt;/code&gt;&lt;/pre&gt;" style="shape=partialRectangle;html=1;whiteSpace=wrap;connectable=0;strokeColor=inherit;overflow=hidden;fillColor=none;top=0;left=0;bottom=0;right=0;pointerEvents=1;fontSize=16;" parent="F8XCtD0g3NKq9j4j3F5Y-51" vertex="1">
          <mxGeometry x="430" width="300" height="64" as="geometry">
            <mxRectangle width="300" height="64" as="alternateBounds" />
          </mxGeometry>
        </mxCell>
        <mxCell id="F8XCtD0g3NKq9j4j3F5Y-55" value="&lt;pre style=&quot;font-size: 12px; text-align: left; box-sizing: border-box; font-family: ui-monospace, SFMono-Regular, &amp;quot;SF Mono&amp;quot;, Menlo, Consolas, &amp;quot;Liberation Mono&amp;quot;, monospace; outline: none; overflow-wrap: normal; overflow: auto; line-height: 1.45; color: rgb(31, 35, 40); background-image: none !important; background-position: initial !important; background-size: initial !important; background-repeat: initial !important; background-attachment: initial !important; background-origin: initial !important; background-clip: initial !important; margin-top: 0px !important; margin-bottom: 0px !important; padding: 16px 24px !important; border-radius: 0px !important;&quot; tabindex=&quot;0&quot; class=&quot;CodeBlock-module__code--KUcqT&quot;&gt;&lt;code style=&quot;background-image: initial; background-position: initial; background-size: initial; background-repeat: initial; background-attachment: initial; background-origin: initial; background-clip: initial; box-sizing: border-box; font-family: ui-monospace, SFMono-Regular, &amp;quot;SF Mono&amp;quot;, Menlo, Consolas, &amp;quot;Liberation Mono&amp;quot;, monospace; padding: 0px; margin: 0px; border-radius: 6px; word-break: normal; border: 0px; display: inline; overflow: visible; line-height: inherit; overflow-wrap: normal;&quot; class=&quot;&quot;&gt;&lt;span style=&quot;box-sizing: border-box;&quot;&gt;arn:aws:lambda:us-east-2:123456789012:&lt;br&gt;function:&lt;span style=&quot;background-color: rgb(255, 230, 204);&quot;&gt;marsha-daily-report&lt;/span&gt;&lt;/span&gt;&lt;/code&gt;&lt;/pre&gt;" style="shape=partialRectangle;html=1;whiteSpace=wrap;connectable=0;strokeColor=inherit;overflow=hidden;fillColor=none;top=0;left=0;bottom=0;right=0;pointerEvents=1;fontSize=16;" parent="F8XCtD0g3NKq9j4j3F5Y-51" vertex="1">
          <mxGeometry x="730" width="300" height="64" as="geometry">
            <mxRectangle width="300" height="64" as="alternateBounds" />
          </mxGeometry>
        </mxCell>
        <mxCell id="F8XCtD0g3NKq9j4j3F5Y-36" value="" style="shape=tableRow;horizontal=0;startSize=0;swimlaneHead=0;swimlaneBody=0;strokeColor=inherit;top=0;left=0;bottom=0;right=0;collapsible=0;dropTarget=0;fillColor=none;points=[[0,0.5],[1,0.5]];portConstraint=eastwest;fontSize=16;" parent="F8XCtD0g3NKq9j4j3F5Y-27" vertex="1">
          <mxGeometry y="286" width="1030" height="64" as="geometry" />
        </mxCell>
        <mxCell id="F8XCtD0g3NKq9j4j3F5Y-45" value="Jan" style="shape=partialRectangle;html=1;whiteSpace=wrap;connectable=0;strokeColor=inherit;overflow=hidden;fillColor=none;top=0;left=0;bottom=0;right=0;pointerEvents=1;fontSize=16;" parent="F8XCtD0g3NKq9j4j3F5Y-36" vertex="1">
          <mxGeometry width="130" height="64" as="geometry">
            <mxRectangle width="130" height="64" as="alternateBounds" />
          </mxGeometry>
        </mxCell>
        <mxCell id="F8XCtD0g3NKq9j4j3F5Y-42" value="&lt;pre style=&quot;font-size: 12px; text-align: left; box-sizing: border-box; font-family: ui-monospace, SFMono-Regular, &amp;quot;SF Mono&amp;quot;, Menlo, Consolas, &amp;quot;Liberation Mono&amp;quot;, monospace; outline: none; overflow-wrap: normal; overflow: auto; line-height: 1.45; color: rgb(31, 35, 40); background-image: none !important; background-position: initial !important; background-size: initial !important; background-repeat: initial !important; background-attachment: initial !important; background-origin: initial !important; background-clip: initial !important; margin-top: 0px !important; margin-bottom: 0px !important; padding: 16px 24px !important; border-radius: 0px !important;&quot; tabindex=&quot;0&quot; class=&quot;CodeBlock-module__code--KUcqT&quot;&gt;&lt;code style=&quot;background-image: initial; background-position: initial; background-size: initial; background-repeat: initial; background-attachment: initial; background-origin: initial; background-clip: initial; box-sizing: border-box; font-family: ui-monospace, SFMono-Regular, &amp;quot;SF Mono&amp;quot;, Menlo, Consolas, &amp;quot;Liberation Mono&amp;quot;, monospace; padding: 0px; margin: 0px; border-radius: 6px; word-break: normal; border: 0px; display: inline; overflow: visible; line-height: inherit; overflow-wrap: normal;&quot; class=&quot;&quot;&gt;&lt;span style=&quot;box-sizing: border-box;&quot;&gt;arn:aws:lambda:us-east-2:123456789012:&lt;br&gt;function:&lt;span style=&quot;background-color: rgb(255, 230, 204);&quot;&gt;jan-daily-import&lt;/span&gt;&lt;/span&gt;&lt;/code&gt;&lt;/pre&gt;" style="shape=partialRectangle;html=1;whiteSpace=wrap;connectable=0;strokeColor=inherit;overflow=hidden;fillColor=none;top=0;left=0;bottom=0;right=0;pointerEvents=1;fontSize=16;" parent="F8XCtD0g3NKq9j4j3F5Y-36" vertex="1">
          <mxGeometry x="130" width="300" height="64" as="geometry">
            <mxRectangle width="300" height="64" as="alternateBounds" />
          </mxGeometry>
        </mxCell>
        <mxCell id="F8XCtD0g3NKq9j4j3F5Y-37" value="&lt;pre style=&quot;font-size: 12px; text-align: left; box-sizing: border-box; font-family: ui-monospace, SFMono-Regular, &amp;quot;SF Mono&amp;quot;, Menlo, Consolas, &amp;quot;Liberation Mono&amp;quot;, monospace; outline: none; overflow-wrap: normal; overflow: auto; line-height: 1.45; color: rgb(31, 35, 40); background-image: none !important; background-position: initial !important; background-size: initial !important; background-repeat: initial !important; background-attachment: initial !important; background-origin: initial !important; background-clip: initial !important; margin-top: 0px !important; margin-bottom: 0px !important; padding: 16px 24px !important; border-radius: 0px !important;&quot; tabindex=&quot;0&quot; class=&quot;CodeBlock-module__code--KUcqT&quot;&gt;&lt;code style=&quot;background-image: initial; background-position: initial; background-size: initial; background-repeat: initial; background-attachment: initial; background-origin: initial; background-clip: initial; box-sizing: border-box; font-family: ui-monospace, SFMono-Regular, &amp;quot;SF Mono&amp;quot;, Menlo, Consolas, &amp;quot;Liberation Mono&amp;quot;, monospace; padding: 0px; margin: 0px; border-radius: 6px; word-break: normal; border: 0px; display: inline; overflow: visible; line-height: inherit; overflow-wrap: normal;&quot; class=&quot;&quot;&gt;&lt;span style=&quot;box-sizing: border-box;&quot;&gt;arn:aws:lambda:us-east-2:123456789012:&lt;br&gt;function:&lt;span style=&quot;background-color: rgb(255, 230, 204);&quot;&gt;jan-users&lt;/span&gt;&lt;/span&gt;&lt;/code&gt;&lt;/pre&gt;" style="shape=partialRectangle;html=1;whiteSpace=wrap;connectable=0;strokeColor=inherit;overflow=hidden;fillColor=none;top=0;left=0;bottom=0;right=0;pointerEvents=1;fontSize=16;" parent="F8XCtD0g3NKq9j4j3F5Y-36" vertex="1">
          <mxGeometry x="430" width="300" height="64" as="geometry">
            <mxRectangle width="300" height="64" as="alternateBounds" />
          </mxGeometry>
        </mxCell>
        <mxCell id="F8XCtD0g3NKq9j4j3F5Y-38" value="&lt;pre style=&quot;font-size: 12px; text-align: left; box-sizing: border-box; font-family: ui-monospace, SFMono-Regular, &amp;quot;SF Mono&amp;quot;, Menlo, Consolas, &amp;quot;Liberation Mono&amp;quot;, monospace; outline: none; overflow-wrap: normal; overflow: auto; line-height: 1.45; color: rgb(31, 35, 40); background-image: none !important; background-position: initial !important; background-size: initial !important; background-repeat: initial !important; background-attachment: initial !important; background-origin: initial !important; background-clip: initial !important; margin-top: 0px !important; margin-bottom: 0px !important; padding: 16px 24px !important; border-radius: 0px !important;&quot; tabindex=&quot;0&quot; class=&quot;CodeBlock-module__code--KUcqT&quot;&gt;&lt;code style=&quot;background-image: initial; background-position: initial; background-size: initial; background-repeat: initial; background-attachment: initial; background-origin: initial; background-clip: initial; box-sizing: border-box; font-family: ui-monospace, SFMono-Regular, &amp;quot;SF Mono&amp;quot;, Menlo, Consolas, &amp;quot;Liberation Mono&amp;quot;, monospace; padding: 0px; margin: 0px; border-radius: 6px; word-break: normal; border: 0px; display: inline; overflow: visible; line-height: inherit; overflow-wrap: normal;&quot; class=&quot;&quot;&gt;&lt;span style=&quot;box-sizing: border-box;&quot;&gt;arn:aws:lambda:us-east-2:123456789012:&lt;br&gt;function:&lt;span style=&quot;background-color: rgb(255, 230, 204);&quot;&gt;jan-daily-report&lt;/span&gt;&lt;/span&gt;&lt;/code&gt;&lt;/pre&gt;" style="shape=partialRectangle;html=1;whiteSpace=wrap;connectable=0;strokeColor=inherit;overflow=hidden;fillColor=none;top=0;left=0;bottom=0;right=0;pointerEvents=1;fontSize=16;" parent="F8XCtD0g3NKq9j4j3F5Y-36" vertex="1">
          <mxGeometry x="730" width="300" height="64" as="geometry">
            <mxRectangle width="300" height="64" as="alternateBounds" />
          </mxGeometry>
        </mxCell>
      </root>
    </mxGraphModel>
  </diagram>
  <diagram name="Execution" id="0G0uwj8p8kgEp9zkz73F">
    <mxGraphModel dx="885" dy="607" grid="0" gridSize="10" guides="1" tooltips="1" connect="1" arrows="1" fold="1" page="1" pageScale="1" pageWidth="1100" pageHeight="850" math="0" shadow="0">
      <root>
        <mxCell id="0" />
        <mxCell id="1" parent="0" />
        <mxCell id="DXqeGnJ9NiXQg_-kDDww-6" style="edgeStyle=orthogonalEdgeStyle;rounded=0;orthogonalLoop=1;jettySize=auto;html=1;exitX=1;exitY=0.5;exitDx=0;exitDy=0;entryX=0;entryY=0.5;entryDx=0;entryDy=0;entryPerimeter=0;" parent="1" source="DXqeGnJ9NiXQg_-kDDww-2" target="DXqeGnJ9NiXQg_-kDDww-43" edge="1">
          <mxGeometry relative="1" as="geometry">
            <mxPoint x="280" y="120" as="targetPoint" />
          </mxGeometry>
        </mxCell>
        <mxCell id="DXqeGnJ9NiXQg_-kDDww-8" value="Invoke" style="edgeLabel;html=1;align=center;verticalAlign=middle;resizable=0;points=[];labelBackgroundColor=none;" parent="DXqeGnJ9NiXQg_-kDDww-6" vertex="1" connectable="0">
          <mxGeometry x="-0.0167" relative="1" as="geometry">
            <mxPoint y="-20" as="offset" />
          </mxGeometry>
        </mxCell>
        <mxCell id="DXqeGnJ9NiXQg_-kDDww-2" value="Containerized / Legacy Code" style="shape=process;whiteSpace=wrap;html=1;backgroundOutline=1;" parent="1" vertex="1">
          <mxGeometry x="40" y="90" width="120" height="60" as="geometry" />
        </mxCell>
        <mxCell id="DXqeGnJ9NiXQg_-kDDww-5" style="edgeStyle=orthogonalEdgeStyle;rounded=0;orthogonalLoop=1;jettySize=auto;html=1;exitX=0.5;exitY=1;exitDx=0;exitDy=0;entryX=0.5;entryY=0;entryDx=0;entryDy=0;entryPerimeter=0;exitPerimeter=0;" parent="1" source="DXqeGnJ9NiXQg_-kDDww-43" target="DXqeGnJ9NiXQg_-kDDww-13" edge="1">
          <mxGeometry relative="1" as="geometry">
            <mxPoint x="340" y="150" as="sourcePoint" />
            <mxPoint x="340" y="190" as="targetPoint" />
          </mxGeometry>
        </mxCell>
        <mxCell id="DXqeGnJ9NiXQg_-kDDww-7" value="Lookup ARN" style="edgeLabel;html=1;align=center;verticalAlign=middle;resizable=0;points=[];labelBackgroundColor=none;" parent="DXqeGnJ9NiXQg_-kDDww-5" vertex="1" connectable="0">
          <mxGeometry x="0.05" y="-3" relative="1" as="geometry">
            <mxPoint x="42" y="-1" as="offset" />
          </mxGeometry>
        </mxCell>
        <mxCell id="DXqeGnJ9NiXQg_-kDDww-9" value="&lt;b&gt;Target &lt;br&gt;Artifact&lt;/b&gt;" style="sketch=0;points=[[0,0,0],[0.25,0,0],[0.5,0,0],[0.75,0,0],[1,0,0],[0,1,0],[0.25,1,0],[0.5,1,0],[0.75,1,0],[1,1,0],[0,0.25,0],[0,0.5,0],[0,0.75,0],[1,0.25,0],[1,0.5,0],[1,0.75,0]];outlineConnect=0;fontColor=#232F3E;fillColor=#ED7100;strokeColor=#ffffff;dashed=0;verticalLabelPosition=bottom;verticalAlign=top;align=center;html=1;fontSize=12;fontStyle=0;aspect=fixed;shape=mxgraph.aws4.resourceIcon;resIcon=mxgraph.aws4.lambda;" parent="1" vertex="1">
          <mxGeometry x="640" y="90" width="60" height="60" as="geometry" />
        </mxCell>
        <mxCell id="DXqeGnJ9NiXQg_-kDDww-13" value="&lt;b&gt;Artifact &lt;br&gt;Registry&lt;/b&gt;" style="outlineConnect=0;dashed=0;verticalLabelPosition=bottom;verticalAlign=top;align=center;html=1;shape=mxgraph.aws3.dynamo_db;fillColor=#2E73B8;gradientColor=none;" parent="1" vertex="1">
          <mxGeometry x="280" y="190" width="60" height="60" as="geometry" />
        </mxCell>
        <mxCell id="DXqeGnJ9NiXQg_-kDDww-14" style="edgeStyle=orthogonalEdgeStyle;rounded=0;orthogonalLoop=1;jettySize=auto;html=1;exitX=1;exitY=0.25;exitDx=0;exitDy=0;entryX=0;entryY=0.25;entryDx=0;entryDy=0;entryPerimeter=0;exitPerimeter=0;" parent="1" source="DXqeGnJ9NiXQg_-kDDww-43" target="DXqeGnJ9NiXQg_-kDDww-9" edge="1">
          <mxGeometry relative="1" as="geometry">
            <mxPoint x="400" y="105" as="sourcePoint" />
            <Array as="points" />
          </mxGeometry>
        </mxCell>
        <mxCell id="DXqeGnJ9NiXQg_-kDDww-19" value="Execute &lt;br&gt;Syncronously" style="edgeLabel;html=1;align=center;verticalAlign=middle;resizable=0;points=[];labelBackgroundColor=none;" parent="DXqeGnJ9NiXQg_-kDDww-14" vertex="1" connectable="0">
          <mxGeometry x="0.0541" y="1" relative="1" as="geometry">
            <mxPoint x="-37" y="-14" as="offset" />
          </mxGeometry>
        </mxCell>
        <mxCell id="DXqeGnJ9NiXQg_-kDDww-15" value="&lt;font style=&quot;font-size: 12px;&quot;&gt;&lt;b&gt;One-Time&lt;br&gt;Schedule&lt;/b&gt;&lt;/font&gt;" style="sketch=0;outlineConnect=0;fontColor=#232F3E;gradientColor=none;fillColor=#E7157B;strokeColor=none;dashed=0;verticalLabelPosition=bottom;verticalAlign=top;align=center;html=1;fontSize=12;fontStyle=0;aspect=fixed;pointerEvents=1;shape=mxgraph.aws4.eventbridge_scheduler;" parent="1" vertex="1">
          <mxGeometry x="470" y="130" width="60" height="60" as="geometry" />
        </mxCell>
        <mxCell id="DXqeGnJ9NiXQg_-kDDww-17" style="edgeStyle=orthogonalEdgeStyle;rounded=0;orthogonalLoop=1;jettySize=auto;html=1;exitX=1;exitY=0.75;exitDx=0;exitDy=0;entryX=-0.033;entryY=0.756;entryDx=0;entryDy=0;entryPerimeter=0;exitPerimeter=0;" parent="1" source="DXqeGnJ9NiXQg_-kDDww-43" target="DXqeGnJ9NiXQg_-kDDww-15" edge="1">
          <mxGeometry relative="1" as="geometry">
            <mxPoint x="400" y="135" as="sourcePoint" />
            <Array as="points">
              <mxPoint x="400" y="135" />
              <mxPoint x="400" y="175" />
            </Array>
          </mxGeometry>
        </mxCell>
        <mxCell id="DXqeGnJ9NiXQg_-kDDww-18" value="Create&lt;br&gt;Schedule" style="edgeLabel;html=1;align=center;verticalAlign=middle;resizable=0;points=[];labelBackgroundColor=none;" parent="DXqeGnJ9NiXQg_-kDDww-17" vertex="1" connectable="0">
          <mxGeometry x="-0.1866" y="1" relative="1" as="geometry">
            <mxPoint x="29" y="11" as="offset" />
          </mxGeometry>
        </mxCell>
        <mxCell id="DXqeGnJ9NiXQg_-kDDww-20" style="edgeStyle=orthogonalEdgeStyle;rounded=0;orthogonalLoop=1;jettySize=auto;html=1;entryX=0;entryY=0.75;entryDx=0;entryDy=0;entryPerimeter=0;exitX=1;exitY=0.671;exitDx=0;exitDy=0;exitPerimeter=0;" parent="1" source="DXqeGnJ9NiXQg_-kDDww-15" target="DXqeGnJ9NiXQg_-kDDww-9" edge="1">
          <mxGeometry relative="1" as="geometry">
            <Array as="points">
              <mxPoint x="590" y="170" />
              <mxPoint x="590" y="135" />
            </Array>
          </mxGeometry>
        </mxCell>
        <mxCell id="DXqeGnJ9NiXQg_-kDDww-40" value="&lt;font style=&quot;font-size: 14px;&quot;&gt;&lt;b style=&quot;font-size: 14px;&quot;&gt;Invocation Mode&lt;/b&gt;&lt;/font&gt;" style="text;html=1;align=center;verticalAlign=middle;whiteSpace=wrap;rounded=0;fontSize=14;" parent="1" vertex="1">
          <mxGeometry x="20" y="30" width="120" height="30" as="geometry" />
        </mxCell>
        <mxCell id="DXqeGnJ9NiXQg_-kDDww-41" value="&lt;font style=&quot;font-size: 14px;&quot;&gt;&lt;b&gt;Scheduling Mode&lt;/b&gt;&lt;/font&gt;" style="text;html=1;align=center;verticalAlign=middle;whiteSpace=wrap;rounded=0;" parent="1" vertex="1">
          <mxGeometry x="20" y="310" width="120" height="30" as="geometry" />
        </mxCell>
        <mxCell id="DXqeGnJ9NiXQg_-kDDww-42" value="Execute &lt;br&gt;Async" style="edgeLabel;html=1;align=center;verticalAlign=middle;resizable=0;points=[];labelBackgroundColor=none;" parent="1" vertex="1" connectable="0">
          <mxGeometry x="547" y="155" as="geometry">
            <mxPoint x="14" y="-4" as="offset" />
          </mxGeometry>
        </mxCell>
        <mxCell id="DXqeGnJ9NiXQg_-kDDww-43" value="" style="sketch=0;points=[[0,0,0],[0.25,0,0],[0.5,0,0],[0.75,0,0],[1,0,0],[0,1,0],[0.25,1,0],[0.5,1,0],[0.75,1,0],[1,1,0],[0,0.25,0],[0,0.5,0],[0,0.75,0],[1,0.25,0],[1,0.5,0],[1,0.75,0]];outlineConnect=0;fontColor=#232F3E;fillColor=#ED7100;strokeColor=#ffffff;dashed=0;verticalLabelPosition=bottom;verticalAlign=top;align=center;html=1;fontSize=12;fontStyle=0;aspect=fixed;shape=mxgraph.aws4.resourceIcon;resIcon=mxgraph.aws4.lambda;" parent="1" vertex="1">
          <mxGeometry x="280" y="90" width="60" height="60" as="geometry" />
        </mxCell>
        <mxCell id="DXqeGnJ9NiXQg_-kDDww-45" value="&lt;font style=&quot;font-size: 12px;&quot;&gt;&lt;b&gt;Custom Logic&lt;br&gt;Service&lt;/b&gt;&lt;/font&gt;" style="edgeLabel;html=1;align=center;verticalAlign=middle;resizable=0;points=[];labelBackgroundColor=none;" parent="1" vertex="1" connectable="0">
          <mxGeometry x="465" y="115" as="geometry">
            <mxPoint x="-155" y="-45" as="offset" />
          </mxGeometry>
        </mxCell>
        <mxCell id="DXqeGnJ9NiXQg_-kDDww-48" style="edgeStyle=orthogonalEdgeStyle;rounded=0;orthogonalLoop=1;jettySize=auto;html=1;exitX=1;exitY=0.5;exitDx=0;exitDy=0;entryX=0;entryY=0.5;entryDx=0;entryDy=0;entryPerimeter=0;" parent="1" source="DXqeGnJ9NiXQg_-kDDww-50" target="DXqeGnJ9NiXQg_-kDDww-63" edge="1">
          <mxGeometry relative="1" as="geometry">
            <mxPoint x="280" y="400" as="targetPoint" />
          </mxGeometry>
        </mxCell>
        <mxCell id="DXqeGnJ9NiXQg_-kDDww-49" value="Invoke" style="edgeLabel;html=1;align=center;verticalAlign=middle;resizable=0;points=[];labelBackgroundColor=none;" parent="DXqeGnJ9NiXQg_-kDDww-48" vertex="1" connectable="0">
          <mxGeometry x="-0.0167" relative="1" as="geometry">
            <mxPoint y="-20" as="offset" />
          </mxGeometry>
        </mxCell>
        <mxCell id="DXqeGnJ9NiXQg_-kDDww-50" value="Containerized / Legacy Code" style="shape=process;whiteSpace=wrap;html=1;backgroundOutline=1;" parent="1" vertex="1">
          <mxGeometry x="40" y="370" width="120" height="60" as="geometry" />
        </mxCell>
        <mxCell id="DXqeGnJ9NiXQg_-kDDww-51" style="edgeStyle=orthogonalEdgeStyle;rounded=0;orthogonalLoop=1;jettySize=auto;html=1;exitX=0.5;exitY=1;exitDx=0;exitDy=0;entryX=0.5;entryY=0;entryDx=0;entryDy=0;entryPerimeter=0;exitPerimeter=0;" parent="1" source="DXqeGnJ9NiXQg_-kDDww-63" target="DXqeGnJ9NiXQg_-kDDww-54" edge="1">
          <mxGeometry relative="1" as="geometry">
            <mxPoint x="340" y="430" as="sourcePoint" />
            <mxPoint x="340" y="470" as="targetPoint" />
          </mxGeometry>
        </mxCell>
        <mxCell id="DXqeGnJ9NiXQg_-kDDww-52" value="Lookup ARN" style="edgeLabel;html=1;align=center;verticalAlign=middle;resizable=0;points=[];labelBackgroundColor=none;" parent="DXqeGnJ9NiXQg_-kDDww-51" vertex="1" connectable="0">
          <mxGeometry x="0.05" y="-3" relative="1" as="geometry">
            <mxPoint x="42" y="-1" as="offset" />
          </mxGeometry>
        </mxCell>
        <mxCell id="DXqeGnJ9NiXQg_-kDDww-53" value="&lt;b&gt;Target &lt;br&gt;Artifact&lt;/b&gt;" style="sketch=0;points=[[0,0,0],[0.25,0,0],[0.5,0,0],[0.75,0,0],[1,0,0],[0,1,0],[0.25,1,0],[0.5,1,0],[0.75,1,0],[1,1,0],[0,0.25,0],[0,0.5,0],[0,0.75,0],[1,0.25,0],[1,0.5,0],[1,0.75,0]];outlineConnect=0;fontColor=#232F3E;fillColor=#ED7100;strokeColor=#ffffff;dashed=0;verticalLabelPosition=bottom;verticalAlign=top;align=center;html=1;fontSize=12;fontStyle=0;aspect=fixed;shape=mxgraph.aws4.resourceIcon;resIcon=mxgraph.aws4.lambda;" parent="1" vertex="1">
          <mxGeometry x="640" y="370" width="60" height="60" as="geometry" />
        </mxCell>
        <mxCell id="DXqeGnJ9NiXQg_-kDDww-54" value="&lt;b&gt;Artifact &lt;br&gt;Registry&lt;/b&gt;" style="outlineConnect=0;dashed=0;verticalLabelPosition=bottom;verticalAlign=top;align=center;html=1;shape=mxgraph.aws3.dynamo_db;fillColor=#2E73B8;gradientColor=none;" parent="1" vertex="1">
          <mxGeometry x="280" y="470" width="60" height="60" as="geometry" />
        </mxCell>
        <mxCell id="DXqeGnJ9NiXQg_-kDDww-57" value="&lt;font style=&quot;font-size: 12px;&quot;&gt;&lt;b&gt;Recurring&lt;br&gt;Schedule&lt;/b&gt;&lt;/font&gt;" style="sketch=0;outlineConnect=0;fontColor=#232F3E;gradientColor=none;fillColor=#E7157B;strokeColor=none;dashed=0;verticalLabelPosition=bottom;verticalAlign=top;align=center;html=1;fontSize=12;fontStyle=0;aspect=fixed;pointerEvents=1;shape=mxgraph.aws4.eventbridge_scheduler;" parent="1" vertex="1">
          <mxGeometry x="470" y="360" width="60" height="60" as="geometry" />
        </mxCell>
        <mxCell id="DXqeGnJ9NiXQg_-kDDww-58" style="edgeStyle=orthogonalEdgeStyle;rounded=0;orthogonalLoop=1;jettySize=auto;html=1;exitX=1;exitY=0.5;exitDx=0;exitDy=0;exitPerimeter=0;" parent="1" source="DXqeGnJ9NiXQg_-kDDww-63" edge="1">
          <mxGeometry relative="1" as="geometry">
            <mxPoint x="400" y="415" as="sourcePoint" />
            <Array as="points">
              <mxPoint x="458" y="400" />
            </Array>
            <mxPoint x="468" y="400" as="targetPoint" />
          </mxGeometry>
        </mxCell>
        <mxCell id="DXqeGnJ9NiXQg_-kDDww-59" value="Create&lt;br&gt;Schedule" style="edgeLabel;html=1;align=center;verticalAlign=middle;resizable=0;points=[];labelBackgroundColor=none;" parent="DXqeGnJ9NiXQg_-kDDww-58" vertex="1" connectable="0">
          <mxGeometry x="-0.1866" y="1" relative="1" as="geometry">
            <mxPoint x="-2" y="-19" as="offset" />
          </mxGeometry>
        </mxCell>
        <mxCell id="DXqeGnJ9NiXQg_-kDDww-60" style="edgeStyle=orthogonalEdgeStyle;rounded=0;orthogonalLoop=1;jettySize=auto;html=1;entryX=0;entryY=0.5;entryDx=0;entryDy=0;entryPerimeter=0;exitX=1;exitY=0.671;exitDx=0;exitDy=0;exitPerimeter=0;" parent="1" source="DXqeGnJ9NiXQg_-kDDww-57" target="DXqeGnJ9NiXQg_-kDDww-53" edge="1">
          <mxGeometry relative="1" as="geometry">
            <Array as="points">
              <mxPoint x="560" y="400" />
              <mxPoint x="560" y="400" />
            </Array>
          </mxGeometry>
        </mxCell>
        <mxCell id="DXqeGnJ9NiXQg_-kDDww-62" value="Execute &lt;br&gt;Async" style="edgeLabel;html=1;align=center;verticalAlign=middle;resizable=0;points=[];labelBackgroundColor=none;" parent="1" vertex="1" connectable="0">
          <mxGeometry x="565" y="385" as="geometry">
            <mxPoint x="14" y="-4" as="offset" />
          </mxGeometry>
        </mxCell>
        <mxCell id="DXqeGnJ9NiXQg_-kDDww-63" value="" style="sketch=0;points=[[0,0,0],[0.25,0,0],[0.5,0,0],[0.75,0,0],[1,0,0],[0,1,0],[0.25,1,0],[0.5,1,0],[0.75,1,0],[1,1,0],[0,0.25,0],[0,0.5,0],[0,0.75,0],[1,0.25,0],[1,0.5,0],[1,0.75,0]];outlineConnect=0;fontColor=#232F3E;fillColor=#ED7100;strokeColor=#ffffff;dashed=0;verticalLabelPosition=bottom;verticalAlign=top;align=center;html=1;fontSize=12;fontStyle=0;aspect=fixed;shape=mxgraph.aws4.resourceIcon;resIcon=mxgraph.aws4.lambda;" parent="1" vertex="1">
          <mxGeometry x="280" y="370" width="60" height="60" as="geometry" />
        </mxCell>
        <mxCell id="DXqeGnJ9NiXQg_-kDDww-64" value="&lt;font style=&quot;font-size: 12px;&quot;&gt;&lt;b&gt;Custom Logic&lt;br&gt;Service&lt;/b&gt;&lt;/font&gt;" style="edgeLabel;html=1;align=center;verticalAlign=middle;resizable=0;points=[];labelBackgroundColor=none;" parent="1" vertex="1" connectable="0">
          <mxGeometry x="465" y="397" as="geometry">
            <mxPoint x="-155" y="-45" as="offset" />
          </mxGeometry>
        </mxCell>
      </root>
    </mxGraphModel>
  </diagram>
  <diagram id="dJxOlJSLwtCpLIHGCH7W" name="Pipeline">
    <mxGraphModel dx="885" dy="607" grid="0" gridSize="10" guides="1" tooltips="1" connect="1" arrows="1" fold="1" page="1" pageScale="1" pageWidth="1100" pageHeight="850" math="0" shadow="0">
      <root>
        <mxCell id="0" />
        <mxCell id="1" parent="0" />
        <mxCell id="4TTv2aJRQ0GT0dHbC8Wq-1" value="&lt;b&gt;Github Actions&lt;/b&gt;" style="dashed=0;outlineConnect=0;html=1;align=center;labelPosition=center;verticalLabelPosition=bottom;verticalAlign=top;shape=mxgraph.weblogos.github" parent="1" vertex="1">
          <mxGeometry x="80" y="81" width="75" height="75" as="geometry" />
        </mxCell>
        <mxCell id="4TTv2aJRQ0GT0dHbC8Wq-2" value="" style="outlineConnect=0;dashed=0;verticalLabelPosition=bottom;verticalAlign=top;align=center;html=1;shape=mxgraph.aws3.bucket_with_objects;fillColor=#E05243;gradientColor=none;" parent="1" vertex="1">
          <mxGeometry x="485" y="87.75" width="60" height="61.5" as="geometry" />
        </mxCell>
        <mxCell id="4TTv2aJRQ0GT0dHbC8Wq-3" style="edgeStyle=orthogonalEdgeStyle;rounded=0;orthogonalLoop=1;jettySize=auto;html=1;entryX=0.06;entryY=0.5;entryDx=0;entryDy=0;entryPerimeter=0;" parent="1" source="4TTv2aJRQ0GT0dHbC8Wq-1" target="4TTv2aJRQ0GT0dHbC8Wq-2" edge="1">
          <mxGeometry relative="1" as="geometry" />
        </mxCell>
        <mxCell id="4TTv2aJRQ0GT0dHbC8Wq-4" style="edgeStyle=orthogonalEdgeStyle;rounded=0;orthogonalLoop=1;jettySize=auto;html=1;exitX=1;exitY=0.25;exitDx=0;exitDy=0;exitPerimeter=0;entryX=0;entryY=0.25;entryDx=0;entryDy=0;entryPerimeter=0;" parent="1" source="4TTv2aJRQ0GT0dHbC8Wq-6" target="4TTv2aJRQ0GT0dHbC8Wq-9" edge="1">
          <mxGeometry relative="1" as="geometry" />
        </mxCell>
        <mxCell id="4TTv2aJRQ0GT0dHbC8Wq-5" value="Create Artifact" style="edgeLabel;html=1;align=center;verticalAlign=middle;resizable=0;points=[];labelBackgroundColor=none;" parent="4TTv2aJRQ0GT0dHbC8Wq-4" vertex="1" connectable="0">
          <mxGeometry x="-0.5467" y="1" relative="1" as="geometry">
            <mxPoint x="10" y="-9" as="offset" />
          </mxGeometry>
        </mxCell>
        <mxCell id="4TTv2aJRQ0GT0dHbC8Wq-6" value="" style="sketch=0;points=[[0,0,0],[0.25,0,0],[0.5,0,0],[0.75,0,0],[1,0,0],[0,1,0],[0.25,1,0],[0.5,1,0],[0.75,1,0],[1,1,0],[0,0.25,0],[0,0.5,0],[0,0.75,0],[1,0.25,0],[1,0.5,0],[1,0.75,0]];outlineConnect=0;fontColor=#232F3E;fillColor=#ED7100;strokeColor=#ffffff;dashed=0;verticalLabelPosition=bottom;verticalAlign=top;align=center;html=1;fontSize=12;fontStyle=0;aspect=fixed;shape=mxgraph.aws4.resourceIcon;resIcon=mxgraph.aws4.lambda;" parent="1" vertex="1">
          <mxGeometry x="300" y="171" width="60" height="60" as="geometry" />
        </mxCell>
        <mxCell id="4TTv2aJRQ0GT0dHbC8Wq-7" style="edgeStyle=orthogonalEdgeStyle;rounded=0;orthogonalLoop=1;jettySize=auto;html=1;entryX=0;entryY=0.5;entryDx=0;entryDy=0;entryPerimeter=0;" parent="1" source="4TTv2aJRQ0GT0dHbC8Wq-1" target="4TTv2aJRQ0GT0dHbC8Wq-6" edge="1">
          <mxGeometry relative="1" as="geometry">
            <Array as="points">
              <mxPoint x="210" y="119" />
              <mxPoint x="210" y="201" />
            </Array>
          </mxGeometry>
        </mxCell>
        <mxCell id="4TTv2aJRQ0GT0dHbC8Wq-8" value="&lt;font style=&quot;font-size: 12px;&quot;&gt;&lt;b&gt;Artifact Binaries&lt;/b&gt;&lt;/font&gt;" style="edgeLabel;html=1;align=center;verticalAlign=middle;resizable=0;points=[];labelBackgroundColor=none;" parent="1" vertex="1" connectable="0">
          <mxGeometry x="515" y="81" as="geometry">
            <mxPoint y="-8" as="offset" />
          </mxGeometry>
        </mxCell>
        <mxCell id="4TTv2aJRQ0GT0dHbC8Wq-9" value="&lt;b&gt;Control Plane&lt;/b&gt;" style="sketch=0;points=[[0,0,0],[0.25,0,0],[0.5,0,0],[0.75,0,0],[1,0,0],[0,1,0],[0.25,1,0],[0.5,1,0],[0.75,1,0],[1,1,0],[0,0.25,0],[0,0.5,0],[0,0.75,0],[1,0.25,0],[1,0.5,0],[1,0.75,0]];outlineConnect=0;fontColor=#232F3E;fillColor=#ED7100;strokeColor=#ffffff;dashed=0;verticalLabelPosition=bottom;verticalAlign=top;align=center;html=1;fontSize=12;fontStyle=0;aspect=fixed;shape=mxgraph.aws4.resourceIcon;resIcon=mxgraph.aws4.lambda;" parent="1" vertex="1">
          <mxGeometry x="485" y="171" width="60" height="60" as="geometry" />
        </mxCell>
        <mxCell id="4TTv2aJRQ0GT0dHbC8Wq-10" style="edgeStyle=orthogonalEdgeStyle;rounded=0;orthogonalLoop=1;jettySize=auto;html=1;exitX=0.5;exitY=0;exitDx=0;exitDy=0;exitPerimeter=0;entryX=0.5;entryY=1;entryDx=0;entryDy=0;entryPerimeter=0;" parent="1" source="4TTv2aJRQ0GT0dHbC8Wq-9" target="4TTv2aJRQ0GT0dHbC8Wq-2" edge="1">
          <mxGeometry relative="1" as="geometry" />
        </mxCell>
        <mxCell id="4TTv2aJRQ0GT0dHbC8Wq-11" value="&lt;b&gt;AWS SDK&lt;/b&gt;" style="sketch=0;points=[[0,0,0],[0.25,0,0],[0.5,0,0],[0.75,0,0],[1,0,0],[0,1,0],[0.25,1,0],[0.5,1,0],[0.75,1,0],[1,1,0],[0,0.25,0],[0,0.5,0],[0,0.75,0],[1,0.25,0],[1,0.5,0],[1,0.75,0]];outlineConnect=0;fontColor=#232F3E;fillColor=#C925D1;strokeColor=#ffffff;dashed=0;verticalLabelPosition=bottom;verticalAlign=top;align=center;html=1;fontSize=12;fontStyle=0;aspect=fixed;shape=mxgraph.aws4.resourceIcon;resIcon=mxgraph.aws4.cloud_control_api;" parent="1" vertex="1">
          <mxGeometry x="670" y="171" width="60" height="60" as="geometry" />
        </mxCell>
        <mxCell id="4TTv2aJRQ0GT0dHbC8Wq-12" style="edgeStyle=orthogonalEdgeStyle;rounded=0;orthogonalLoop=1;jettySize=auto;html=1;entryX=0;entryY=0.5;entryDx=0;entryDy=0;entryPerimeter=0;exitX=1;exitY=0.5;exitDx=0;exitDy=0;exitPerimeter=0;" parent="1" source="4TTv2aJRQ0GT0dHbC8Wq-9" target="4TTv2aJRQ0GT0dHbC8Wq-11" edge="1">
          <mxGeometry relative="1" as="geometry">
            <mxPoint x="550" y="181" as="sourcePoint" />
          </mxGeometry>
        </mxCell>
        <mxCell id="4TTv2aJRQ0GT0dHbC8Wq-13" value="Create Artifact" style="edgeLabel;html=1;align=center;verticalAlign=middle;resizable=0;points=[];labelBackgroundColor=none;" parent="4TTv2aJRQ0GT0dHbC8Wq-12" vertex="1" connectable="0">
          <mxGeometry x="0.0347" y="1" relative="1" as="geometry">
            <mxPoint x="-28" y="-9" as="offset" />
          </mxGeometry>
        </mxCell>
        <mxCell id="4TTv2aJRQ0GT0dHbC8Wq-14" value="Return ARN" style="edgeLabel;html=1;align=center;verticalAlign=middle;resizable=0;points=[];labelBackgroundColor=none;" parent="4TTv2aJRQ0GT0dHbC8Wq-12" vertex="1" connectable="0">
          <mxGeometry x="0.5467" y="1" relative="1" as="geometry">
            <mxPoint x="-12" y="11" as="offset" />
          </mxGeometry>
        </mxCell>
        <mxCell id="4TTv2aJRQ0GT0dHbC8Wq-15" style="edgeStyle=orthogonalEdgeStyle;rounded=0;orthogonalLoop=1;jettySize=auto;html=1;exitX=0;exitY=0.75;exitDx=0;exitDy=0;exitPerimeter=0;entryX=1;entryY=0.75;entryDx=0;entryDy=0;entryPerimeter=0;" parent="1" source="4TTv2aJRQ0GT0dHbC8Wq-9" target="4TTv2aJRQ0GT0dHbC8Wq-6" edge="1">
          <mxGeometry relative="1" as="geometry" />
        </mxCell>
        <mxCell id="4TTv2aJRQ0GT0dHbC8Wq-16" value="Record ARN" style="edgeLabel;html=1;align=center;verticalAlign=middle;resizable=0;points=[];labelBackgroundColor=none;" parent="4TTv2aJRQ0GT0dHbC8Wq-15" vertex="1" connectable="0">
          <mxGeometry x="-0.168" y="1" relative="1" as="geometry">
            <mxPoint x="17" y="7" as="offset" />
          </mxGeometry>
        </mxCell>
        <mxCell id="4TTv2aJRQ0GT0dHbC8Wq-17" style="edgeStyle=orthogonalEdgeStyle;rounded=0;orthogonalLoop=1;jettySize=auto;html=1;exitX=0.5;exitY=1;exitDx=0;exitDy=0;entryX=0.5;entryY=0;entryDx=0;entryDy=0;entryPerimeter=0;exitPerimeter=0;" parent="1" target="4TTv2aJRQ0GT0dHbC8Wq-19" edge="1">
          <mxGeometry relative="1" as="geometry">
            <mxPoint x="330" y="231" as="sourcePoint" />
            <mxPoint x="360" y="271" as="targetPoint" />
          </mxGeometry>
        </mxCell>
        <mxCell id="4TTv2aJRQ0GT0dHbC8Wq-18" value="Store Metadata" style="edgeLabel;html=1;align=center;verticalAlign=middle;resizable=0;points=[];labelBackgroundColor=none;" parent="4TTv2aJRQ0GT0dHbC8Wq-17" vertex="1" connectable="0">
          <mxGeometry x="0.05" y="-3" relative="1" as="geometry">
            <mxPoint x="-37" y="-1" as="offset" />
          </mxGeometry>
        </mxCell>
        <mxCell id="4TTv2aJRQ0GT0dHbC8Wq-19" value="&lt;b&gt;Artifact &lt;br&gt;Registry&lt;/b&gt;" style="outlineConnect=0;dashed=0;verticalLabelPosition=bottom;verticalAlign=top;align=center;html=1;shape=mxgraph.aws3.dynamo_db;fillColor=#2E73B8;gradientColor=none;" parent="1" vertex="1">
          <mxGeometry x="300" y="271" width="60" height="60" as="geometry" />
        </mxCell>
        <mxCell id="4TTv2aJRQ0GT0dHbC8Wq-20" value="&lt;b style=&quot;forced-color-adjust: none; color: rgb(0, 0, 0); font-family: Helvetica; font-size: 12px; font-style: normal; font-variant-ligatures: normal; font-variant-caps: normal; letter-spacing: normal; orphans: 2; text-indent: 0px; text-transform: none; widows: 2; word-spacing: 0px; -webkit-text-stroke-width: 0px; white-space: nowrap; background-color: rgb(251, 251, 251); text-decoration-thickness: initial; text-decoration-style: initial; text-decoration-color: initial;&quot;&gt;Custom&amp;nbsp;&lt;/b&gt;&lt;b style=&quot;text-wrap: nowrap;&quot;&gt;Logic&lt;/b&gt;&lt;div&gt;&lt;b style=&quot;forced-color-adjust: none; color: rgb(0, 0, 0); font-family: Helvetica; font-size: 12px; font-style: normal; font-variant-ligatures: normal; font-variant-caps: normal; letter-spacing: normal; orphans: 2; text-indent: 0px; text-transform: none; widows: 2; word-spacing: 0px; -webkit-text-stroke-width: 0px; white-space: nowrap; background-color: rgb(251, 251, 251); text-decoration-thickness: initial; text-decoration-style: initial; text-decoration-color: initial;&quot;&gt;Service&lt;/b&gt;&lt;/div&gt;" style="text;whiteSpace=wrap;html=1;align=center;" parent="1" vertex="1">
          <mxGeometry x="280" y="131" width="100" height="40" as="geometry" />
        </mxCell>
        <mxCell id="4TTv2aJRQ0GT0dHbC8Wq-21" value="Artifact Binary" style="edgeLabel;html=1;align=center;verticalAlign=middle;resizable=0;points=[];labelBackgroundColor=none;" parent="1" vertex="1" connectable="0">
          <mxGeometry x="255" y="111" as="geometry" />
        </mxCell>
        <mxCell id="4TTv2aJRQ0GT0dHbC8Wq-22" value="&lt;span style=&quot;color: rgb(0, 0, 0); font-family: Helvetica; font-size: 11px; font-style: normal; font-variant-ligatures: normal; font-variant-caps: normal; font-weight: 400; letter-spacing: normal; orphans: 2; text-align: center; text-indent: 0px; text-transform: none; widows: 2; word-spacing: 0px; -webkit-text-stroke-width: 0px; white-space: nowrap; background-color: rgb(251, 251, 251); text-decoration-thickness: initial; text-decoration-style: initial; text-decoration-color: initial; display: inline !important; float: none;&quot;&gt;Registration&lt;/span&gt;" style="text;whiteSpace=wrap;html=1;" parent="1" vertex="1">
          <mxGeometry x="212" y="179" width="85" height="23" as="geometry" />
        </mxCell>
        <mxCell id="jSOg3GWDKxZFHidXyQur-1" value="&lt;font style=&quot;font-size: 14px;&quot;&gt;&lt;b style=&quot;font-size: 14px;&quot;&gt;Artifact Registration&lt;/b&gt;&lt;/font&gt;" style="text;html=1;align=center;verticalAlign=middle;whiteSpace=wrap;rounded=0;fontSize=14;" parent="1" vertex="1">
          <mxGeometry x="30" y="30" width="160" height="30" as="geometry" />
        </mxCell>
      </root>
    </mxGraphModel>
  </diagram>
</mxfile>
